<?xml version="1.0" encoding="utf-8" ?>
<!-- Generator: Assembly 1.0 - http://assemblyapp.co -->
<svg version="1.1" xmlns="http://www.w3.org/2000/svg" xmlns:xlink="http://www.w3.org/1999/xlink" width="300" height="300" viewBox="0 0 300 300">
    <g id="widget" transform="matrix(1,0,0,1,150,150)">
        <path d="M-42.3427,-24.4793 C-35.5061,-36.1677 -39.6962,-50.9435 -51.3846,-57.7801 C-63.0729,-64.6167 -78.0693,-60.647 -84.9058,-48.9587 C-91.7424,-37.2704 -87.5523,-22.274 -75.8639,-15.4374 C-63.9551,-8.82139 -48.9587,-12.791 -42.3427,-24.4793 Z M-42.3427,24.4793 C-49.1792,12.791 -64.1756,8.82138 -75.8639,15.4374 C-87.5523,22.274 -91.5219,37.2704 -84.9058,48.9587 C-78.2898,60.647 -63.0729,64.6167 -51.3846,57.7801 C-39.4757,50.9435 -35.5061,36.1677 -42.3427,24.4793 Z M1.70884e-06,48.9587 C-13.4526,48.9587 -24.4793,59.9854 -24.4793,73.438 C-24.4793,86.8907 -13.4526,97.9174 1.70884e-06,97.9174 C13.4526,97.9174 24.4793,86.8907 24.4793,73.438 C24.4793,59.9854 13.4526,48.9587 1.70884e-06,48.9587 Z M42.3427,24.4793 C35.5061,36.1677 39.6962,51.164 51.3846,58.0006 C63.0729,64.8372 78.0693,60.647 84.9058,48.9587 C91.7424,37.2704 87.5523,22.274 75.8639,15.4374 C63.9551,8.82138 48.9587,12.791 42.3427,24.4793 Z M42.3427,-24.4793 C49.1792,-12.791 64.1756,-8.82139 75.8639,-15.4374 C87.5523,-22.274 91.5219,-37.2704 84.9058,-48.9587 C78.0693,-60.647 63.0729,-64.6167 51.3846,-57.7801 C39.4757,-50.9435 35.5061,-36.1677 42.3427,-24.4793 Z M1.70884e-06,-48.9587 C13.4526,-48.9587 24.4793,-59.9854 24.4793,-73.438 C24.4793,-86.8907 13.4526,-97.9174 1.70884e-06,-97.9174 C-13.4526,-97.9174 -24.4793,-86.8907 -24.4793,-73.438 C-24.4793,-59.9854 -13.4526,-48.9587 1.70884e-06,-48.9587 Z" fill="#eff4f6" fill-opacity="1">
            <animateTransform attributeName="transform" attributeType="XML" type="rotate" from="0 0 0" to="360 0 0" dur="3s" repeatCount="indefinite"/>
        </path>
        <path d="M-110.538,-24.483 L-105.455,-24.483 L-105.455,8.5697 L-86.4506,8.5697 L-86.4506,13.0397 L-110.538,13.0397 Z" fill="#09476b" fill-opacity="1" />
        <path d="M-64.9305,6.61566 Q-63.2319,3.15457 -63.2319,-1.08558Q-63.2319,-4.91704 -64.458,-7.31809Q-66.3992,-11.0985 -71.1502,-11.0985Q-75.3649,-11.0985 -77.2806,-7.88004Q-79.1963,-4.66161 -79.1963,-0.114944Q-79.1963,4.25292 -77.2806,7.16483Q-75.3649,10.0767 -71.2013,10.0767Q-66.6291,10.0767 -64.9305,6.61566Z M-62.0825,-11.5838 Q-58.4298,-8.05884 -58.4298,-1.2133Q-58.4298,5.40236 -61.6482,9.71914Q-64.8667,14.0359 -71.6356,14.0359Q-77.2806,14.0359 -80.6012,10.2172Q-83.9218,6.39854 -83.9218,-0.0383146Q-83.9218,-6.93495 -80.4224,-11.0218Q-76.923,-15.1087 -71.0225,-15.1087Q-65.7351,-15.1087 -62.0825,-11.5838Z M-71.1758,-14.981" fill="#09476b" fill-opacity="1" />
        <path d="M-47.9827,8.90176 Q-46.5267,10.0512 -44.5344,10.0512Q-42.1078,10.0512 -39.8344,8.92731Q-36.003,7.06266 -36.003,2.82251L-36.003,-0.881236 Q-36.8459,-0.344832 -38.1741,0.0127715Q-39.5024,0.370375 -40.7795,0.523633L-43.5637,0.881236 Q-46.0669,1.2133 -47.3186,1.9285Q-49.4386,3.12903 -49.4386,5.75996Q-49.4386,7.75232 -47.9827,8.90176Z M-38.3018,-3.53772 Q-36.7182,-3.74206 -36.1818,-4.86596Q-35.8753,-5.47899 -35.8753,-6.62843Q-35.8753,-8.97839 -37.5483,-10.0384Q-39.2214,-11.0985 -42.3377,-11.0985Q-45.9392,-11.0985 -47.4463,-9.15719Q-48.2892,-8.08438 -48.5446,-5.96431L-52.8359,-5.96431 Q-52.7081,-11.0218 -49.5536,-13.0014Q-46.399,-14.981 -42.2355,-14.981Q-37.4078,-14.981 -34.3938,-13.1419Q-31.4052,-11.3028 -31.4052,-7.42026L-31.4052,8.33982 Q-31.4052,9.05502 -31.1115,9.48925Q-30.8177,9.92349 -29.8726,9.92349Q-29.5661,9.92349 -29.183,9.88517Q-28.7998,9.84686 -28.3656,9.77023L-28.3656,13.1675 Q-29.4384,13.474 -30.0003,13.5506Q-30.5623,13.6272 -31.5329,13.6272Q-33.9084,13.6272 -34.9812,11.9414Q-35.5432,11.0474 -35.7731,9.41262Q-37.178,11.2517 -39.8089,12.6055Q-42.4398,13.9593 -45.6072,13.9593Q-49.4131,13.9593 -51.8269,11.6476Q-54.2407,9.336 -54.2407,5.86214Q-54.2407,2.05622 -51.8652,-0.0383146Q-49.4897,-2.13285 -45.6327,-2.61817Z M-42.1078,-14.981" fill="#09476b" fill-opacity="1" />
        <path d="M-19.0935,7.03712 Q-17.2288,10.0001 -13.1164,10.0001Q-9.92349,10.0001 -7.86727,7.25423Q-5.81105,4.50835 -5.81105,-0.625805Q-5.81105,-5.81105 -7.93113,-8.3015Q-10.0512,-10.792 -13.1675,-10.792Q-16.6413,-10.792 -18.7997,-8.13547Q-20.9581,-5.47899 -20.9581,-0.319288Q-20.9581,4.07412 -19.0935,7.03712Z M-8.77405,-13.474 Q-7.54798,-12.7077 -5.98985,-10.792L-5.98985,-24.6108 L-1.5709,-24.6108 L-1.5709,13.0397 L-5.70888,13.0397 L-5.70888,9.23382 Q-7.31809,11.7626 -9.5148,12.8865Q-11.7115,14.0104 -14.5468,14.0104Q-19.119,14.0104 -22.4651,10.1661Q-25.8113,6.32191 -25.8113,-0.0638577Q-25.8113,-6.04094 -22.7589,-10.4216Q-19.7065,-14.8022 -14.0359,-14.8022Q-10.8941,-14.8022 -8.77405,-13.474Z" fill="#09476b" fill-opacity="1" />
        <path d="M5.22356,-14.1892 L9.89794,-14.1892 L9.89794,13.0397 L5.22356,13.0397 Z M5.22356,-24.483 L9.89794,-24.483 L9.89794,-19.2723 L5.22356,-19.2723 Z" fill="#09476b" fill-opacity="1" />
        <path d="M16.8457,-14.3169 L21.2135,-14.3169 L21.2135,-10.4343 Q23.1548,-12.8354 25.326,-13.8827Q27.4971,-14.9299 30.1536,-14.9299Q35.9774,-14.9299 38.0209,-10.8686Q39.1448,-8.64633 39.1448,-4.50835L39.1448,13.0397 L34.4704,13.0397 L34.4704,-4.20184 Q34.4704,-6.70506 33.7296,-8.23764Q32.5036,-10.792 29.2851,-10.792Q27.6504,-10.792 26.6031,-10.4599Q24.7129,-9.89794 23.2825,-8.2121Q22.1331,-6.85832 21.7882,-5.41513Q21.4434,-3.97195 21.4434,-1.28993L21.4434,13.0397 L16.8457,13.0397 Z M27.6504,-14.981" fill="#09476b" fill-opacity="1" />
        <path d="M61.214,-13.2185 Q62.5167,-12.3245 63.8705,-10.6131L63.8705,-14.0615 L68.1106,-14.0615 L68.1106,10.8175 Q68.1106,16.0283 66.578,19.0424Q63.7172,24.6108 55.7733,24.6108Q51.3544,24.6108 48.3403,22.6312Q45.3262,20.6516 44.9686,16.437L49.643,16.437 Q49.975,18.2761 50.9712,19.2723Q52.5293,20.8048 55.8755,20.8048Q61.1629,20.8048 62.7977,17.0755Q63.7683,14.8788 63.6917,9.23382Q62.3123,11.3284 60.3711,12.3501Q58.4298,13.3718 55.2369,13.3718Q50.7924,13.3718 47.459,10.2172Q44.1257,7.06266 44.1257,-0.217116Q44.1257,-7.0882 47.4846,-10.9452Q50.8435,-14.8022 55.5945,-14.8022Q58.8129,-14.8022 61.214,-13.2185Z M61.7759,-8.28873 Q59.6814,-10.7409 56.4374,-10.7409Q51.5842,-10.7409 49.7962,-6.1942Q48.8511,-3.7676 48.8511,0.16603Q48.8511,4.78933 50.7286,7.20315Q52.606,9.61697 55.7733,9.61697Q60.7287,9.61697 62.7466,5.14693Q63.8705,2.61817 63.8705,-0.753521Q63.8705,-5.83659 61.7759,-8.28873Z M56.1309,-14.981" fill="#09476b" fill-opacity="1" />
        <path d="M76.1311,7.47135 L81.4697,7.47135 L81.4697,13.0397 L76.1311,13.0397 Z" fill="#09476b" fill-opacity="1">
            <animateColor attributeName="fill" values="white; #09476b; #09476b; #09476b;" begin="0s" dur="2s" repeatCount="indefinite"/>
        </path>
        <path d="M90.6652,7.47135 L96.0037,7.47135 L96.0037,13.0397 L90.6652,13.0397 Z" fill="#09476b" fill-opacity="1">
            <animateColor attributeName="fill" values="white; white; #09476b; #09476b;" begin="0s" dur="2s" repeatCount="indefinite"/>
        </path>
        <path d="M105.199,7.47135 L110.538,7.47135 L110.538,13.0397 L105.199,13.0397 Z" fill="#09476b" fill-opacity="1">
            <animateColor attributeName="fill" values="white; white; white; #09476b;" begin="0s" dur="2s" repeatCount="indefinite"/>
        </path>
    </g>
</svg>