<?xml version="1.0" encoding="utf-8"?>
<!-- Generator: Adobe Illustrator 16.0.0, SVG Export Plug-In . SVG Version: 6.00 Build 0)  -->
<!DOCTYPE svg PUBLIC "-//W3C//DTD SVG 1.1//EN" "http://www.w3.org/Graphics/SVG/1.1/DTD/svg11.dtd">
<svg version="1.1" id="Layer_1" xmlns="http://www.w3.org/2000/svg" xmlns:xlink="http://www.w3.org/1999/xlink" x="0px" y="0px"
	 width="208.492px" height="39.719px" viewBox="0 0 208.492 39.719" enable-background="new 0 0 208.492 39.719"
	 xml:space="preserve">
<g>
	<g>
		<path fill="#FFFFFF" d="M94.309,16.463c1.75,1.464,2.627,3.72,2.627,6.768c0,3.049-0.895,5.28-2.682,6.696
			c-1.789,1.417-4.531,2.124-8.226,2.124h-4.464v7.381h-4.248V14.267h8.64C89.772,14.267,92.555,14.999,94.309,16.463z
			 M91.301,26.85c0.854-0.9,1.279-2.221,1.279-3.961s-0.541-2.97-1.621-3.689c-1.08-0.72-2.771-1.08-5.075-1.08h-4.32v10.08h4.932
			C88.848,28.199,90.45,27.749,91.301,26.85z"/>
		<path fill="#FFFFFF" d="M121.837,14.267v3.996H108.41v6.66h12.06v3.78h-12.06v6.732h13.859v3.996h-18.107V14.267H121.837z"/>
		<path fill="#FFFFFF" d="M134.584,33.707l-2.52,5.725h-4.537l11.089-25.165h4.536l11.088,25.165h-4.536l-2.521-5.725H134.584z
			 M145.457,29.783l-4.571-10.368l-4.571,10.368H145.457z"/>
		<path fill="#FFFFFF" d="M170.547,35.579c1.464,0,2.725-0.246,3.78-0.738c1.056-0.491,2.159-1.278,3.312-2.358l2.735,2.809
			c-2.664,2.952-5.897,4.428-9.702,4.428c-3.804,0-6.96-1.224-9.468-3.672c-2.509-2.447-3.763-5.544-3.763-9.288
			c0-3.743,1.278-6.864,3.834-9.36c2.557-2.496,5.783-3.744,9.685-3.744s7.158,1.439,9.774,4.32l-2.7,2.952
			c-1.2-1.152-2.334-1.956-3.402-2.412c-1.067-0.456-2.321-0.684-3.762-0.684c-2.544,0-4.681,0.822-6.408,2.466
			c-1.728,1.645-2.592,3.744-2.592,6.301c0,2.555,0.858,4.691,2.573,6.407C166.16,34.721,168.195,35.579,170.547,35.579z"/>
		<path fill="#FFFFFF" d="M187.503,39.432V14.267h4.248v10.908h12.492V14.267h4.248v25.165h-4.248V29.135h-12.492v10.297H187.503z"
			/>
	</g>
	<rect y="21.43" fill="#FFFFFF" width="16" height="18"/>
	<rect x="20.25" fill="#FFFFFF" width="16" height="39.43"/>
	<rect x="40.5" y="14.5" fill="#FFFFFF" width="16" height="24.93"/>
</g>
</svg>
